<?xml version="1.0" encoding="UTF-8"?>
<svg id="_レイヤー_2" data-name="レイヤー 2" xmlns="http://www.w3.org/2000/svg" viewBox="0 0 566.93 566.93">
  <defs>
    <style>
      .cls-1 {
        fill: #c30d23;
      }

      .cls-2 {
        fill: #fff;
      }
    </style>
  </defs>
  <g id="_レイヤー_1-2" data-name="レイヤー 1">
    <g>
      <rect class="cls-1" width="566.93" height="566.93"/>
      <path class="cls-2" d="M343.62,215.14c29.66,55.62,77.04,103.82,120.72,128.54,12.77,7,17.72,18.13,17.72,29.25,0,7.42-2.47,14.83-6.59,21.01-6.59,10.71-16.89,15.66-27.61,15.66-7,0-14.42-2.47-21.01-6.59-15.24-10.3-31.31-23.9-46.97-39.55,1.24,3.71,2.06,8.24,2.06,13.18,0,18.54-8.65,28.43-22.66,28.43h-43.67v56.03c0,14.83-12.36,22.66-33.37,22.66s-33.37-7.83-33.37-22.66v-56.03h-42.03c-14.01,0-22.66-9.89-22.66-28.43,0-4.94.82-9.89,2.47-14.01-13.6,14.42-28.02,27.6-43.26,39.14-7.42,5.77-14.83,8.24-21.84,8.24-9.89,0-18.54-5.36-25.54-14.83-4.94-7.42-7.83-15.66-7.83-23.07,0-9.48,4.12-18.13,13.18-24.31,46.56-31.72,89.82-79.93,117.83-132.66h-98.88c-14.83,0-22.66-11.95-22.66-30.08s7.83-30.08,22.66-30.08h128.54v-42.02c0-14.83,11.95-22.66,33.37-22.66s33.37,7.83,33.37,22.66v42.02h131.84c14.83,0,22.66,11.54,22.66,29.66s-7.83,30.49-22.66,30.49h-103.83ZM248.86,312.38c0-14.83.82-27.6,2.88-41.2-14.83,27.19-32.55,53.97-53.15,77.87,2.47-1.24,5.36-1.65,8.24-1.65h42.03v-35.02ZM359.27,347.39c2.47,0,4.53.41,6.59.82-20.6-23.07-39.55-49.44-53.15-77.04,2.06,13.6,2.88,26.37,2.88,41.2v35.02h43.67Z"/>
    </g>
  </g>
</svg>